<?xml version="1.0" encoding="utf-8"?>
<svg fill="#d9dad7" height="200px" width="200px" version="1.1" id="Layer_1" xmlns="http://www.w3.org/2000/svg" viewBox="-46 -46 552.00 552.00" stroke="#d9dad7" stroke-width="0.0046" xmlns:bx="https://boxy-svg.com"><defs><bx:export><bx:file format="svg" href="#object-0"/><bx:file format="svg" path="Untitled 2.svg"/></bx:export></defs><g id="SVGRepo_bgCarrier" stroke-width="0" transform="translate(69,69), scale(0.7)"><rect x="-46" y="-46" width="552.00" height="552.00" rx="27.6" fill="#f96d00" strokewidth="0"/></g><g id="SVGRepo_tracerCarrier" stroke-linecap="round" stroke-linejoin="round"><rect x="58.899" y="42.958" width="340.741" height="135.323" style="stroke: rgb(0, 0, 0); stroke-width: 1px; fill: rgb(34, 40, 49);" id="object-0"/></g><g id="SVGRepo_iconCarrier"><g id="XMLID_1123_"><g><path d="M400.573,0H59.427c-20.987,0-38,17.013-38,38v384c0,20.987,17.013,38,38,38h341.146c20.987,0,38-17.013,38-38V38 C438.573,17.013,421.56,0,400.573,0z M144.5,395.85c0,5.789-4.693,10.483-10.483,10.483H80.983 c-5.79,0-10.483-4.694-10.483-10.483v-53.034c0-5.79,4.693-10.483,10.483-10.483h53.034c5.79,0,10.483,4.693,10.483,10.483V395.85 z M144.5,278.517c0,5.79-4.693,10.483-10.483,10.483H80.983c-5.79,0-10.483-4.693-10.483-10.483v-53.033 c0-5.79,4.693-10.483,10.483-10.483h53.034c5.79,0,10.483,4.693,10.483,10.483V278.517z M267,395.85 c0,5.789-4.694,10.483-10.483,10.483h-53.034c-5.79,0-10.483-4.694-10.483-10.483v-53.034c0-5.79,4.693-10.483,10.483-10.483 h53.034c5.79,0,10.483,4.693,10.483,10.483V395.85z M267,278.517c0,5.79-4.693,10.483-10.483,10.483h-53.034 c-5.79,0-10.483-4.693-10.483-10.483v-53.033c0-5.79,4.693-10.483,10.483-10.483h53.034c5.79,0,10.483,4.693,10.483,10.483 V278.517z M389.5,395.85c0,5.789-4.693,10.483-10.483,10.483h-53.034c-5.79,0-10.483-4.694-10.483-10.483v-53.034 c0-5.79,4.694-10.483,10.483-10.483h53.034c5.79,0,10.483,4.693,10.483,10.483V395.85z M389.5,278.517 c0,5.79-4.693,10.483-10.483,10.483h-53.034c-5.79,0-10.483-4.693-10.483-10.483v-53.033c0-5.79,4.694-10.483,10.483-10.483 h53.034c5.79,0,10.483,4.693,10.483,10.483V278.517z M389.5,151.517c0,5.79-4.693,10.483-10.483,10.483H80.983 c-5.79,0-10.483-4.693-10.483-10.483V56.483C70.5,50.693,75.193,46,80.983,46h298.034c5.79,0,10.483,4.693,10.483,10.483V151.517z "/></g></g></g></svg>